<?xml version="1.0" encoding="utf-8"?>

<!-- Uploaded to: SVG Repo, www.svgrepo.com, Generator: SVG Repo Mixer Tools -->
<svg version="1.1" id="Icons" xmlns="http://www.w3.org/2000/svg" xmlns:xlink="http://www.w3.org/1999/xlink" 
	 viewBox="0 0 32 32" xml:space="preserve">
<style type="text/css">
	.st0{fill:none;stroke:#000000;stroke-width:2;stroke-linecap:round;stroke-linejoin:round;stroke-miterlimit:10;}
	.st1{fill:none;stroke:#000000;stroke-width:2;stroke-linejoin:round;stroke-miterlimit:10;}
</style>
<path class="st0" d="M23.6,27H8.4c-3,0-5.4-2.4-5.4-5.4V17h26v4.6C29,24.6,26.6,27,23.6,27z"/>
<path class="st0" d="M23.3,17c1.1-0.7,1.9-1.8,2.4-3c0.1,0,0.2,0,0.3,0c1.1,0,2-0.9,2-2s-0.9-2-2-2c-0.1,0-0.2,0-0.3,0
	c-0.8-2.3-3-4-5.7-4s-4.8,1.7-5.7,4c-0.1,0-0.2,0-0.3,0c-1.1,0-2,0.9-2,2s0.9,2,2,2c0.1,0,0.2,0,0.3,0c0.4,1.2,1.2,2.2,2.2,2.9"/>
<path class="st0" d="M18,3L18,3c0,1.2,0.7,2.3,1.9,2.7L20.6,6"/>
<line class="st0" x1="18" y1="11" x2="18" y2="13"/>
<line class="st0" x1="22" y1="11" x2="22" y2="13"/>
<line class="st0" x1="5" y1="29" x2="6" y2="26.8"/>
<line class="st0" x1="27" y1="29" x2="26" y2="26.8"/>
<path class="st0" d="M5,17V5.8C5,4.3,6.3,3,7.8,3h0c0.8,0,1.5,0.3,2,0.8L11,5"/>
<line class="st0" x1="13" y1="4" x2="9" y2="7"/>
</svg>