<?xml version="1.0" encoding="iso-8859-1"?>
<!-- Uploaded to: SVG Repo, www.svgrepo.com, Generator: SVG Repo Mixer Tools -->
<svg version="1.1" id="Layer_1" xmlns="http://www.w3.org/2000/svg" xmlns:xlink="http://www.w3.org/1999/xlink" 
	 viewBox="0 0 512 512" xml:space="preserve">
<rect x="416.246" y="174.77" style="fill:#D2E3F7;" width="81.424" height="61.619"/>
<path style="fill:#E6F6FF;" d="M497.67,118.882v55.887h-81.424v61.619h81.424v53.709h-52.849
	c-60.76,0-109.998,49.253-109.998,109.998v51.502h-78.816h-78.816v-51.502c0-60.745-49.253-109.998-109.998-109.998H14.33v-53.709
	h81.438V174.77H14.33v-55.887L497.67,118.882L497.67,118.882z"/>
<path style="fill:#D2E3F7;" d="M444.821,290.098h52.849c0,44.595-18.07,84.977-47.289,114.197
	c-29.233,29.219-69.601,47.304-114.197,47.304h-1.361v-51.502C334.823,339.351,384.061,290.098,444.821,290.098z"/>
<g>
	<polygon style="fill:#97C2F7;" points="256.007,60.401 256.007,118.882 191.522,118.882 14.33,118.882 14.33,60.401 	"/>
	<polygon style="fill:#97C2F7;" points="497.677,60.401 497.677,118.882 433.192,118.882 256,118.882 256,60.401 	"/>
</g>
<g>
	<path style="fill:#D2E3F7;" d="M177.192,400.096v51.502h-1.361c-44.595,0-84.963-18.085-114.197-47.304
		S14.33,334.694,14.33,290.098h52.864C127.939,290.098,177.192,339.351,177.192,400.096z"/>
	<rect x="14.33" y="174.77" style="fill:#D2E3F7;" width="81.438" height="61.619"/>
</g>
<path d="M175.83,465.929h80.177h80.177c46.948,0,91.102-18.289,124.329-51.501C493.715,381.226,512,337.073,512,290.098V60.401
	c0-7.915-6.416-14.33-14.33-14.33H256.007H14.33C6.416,46.071,0,52.487,0,60.401V174.77v61.619v53.709
	c0,46.981,18.291,91.137,51.504,124.332C84.728,447.639,128.882,465.929,175.83,465.929z M29.347,304.429h37.847
	c52.752,0,95.668,42.917,95.668,95.668v36.601c-34.405-2.986-66.367-17.819-91.096-42.537
	C47.374,369.781,32.601,338.336,29.347,304.429z M28.66,189.1h52.778v32.959H28.66V189.1z M440.251,394.159
	c-24.731,24.718-56.693,39.551-91.098,42.537v-36.6c0-52.752,42.917-95.668,95.668-95.668h37.831
	C479.4,338.334,464.633,369.778,440.251,394.159z M483.34,222.059h-52.763V189.1h52.763V222.059z M483.34,160.44h-67.094
	c-7.915,0-14.33,6.416-14.33,14.33v61.619c0,7.915,6.416,14.33,14.33,14.33h67.094v25.049h-38.519
	c-68.555,0-124.328,55.773-124.328,124.328v37.172h-64.485h-64.485v-37.172c0-68.555-55.773-124.328-124.328-124.328H28.66v-25.049
	h67.108c7.915,0,14.33-6.416,14.33-14.33V174.77c0-7.915-6.416-14.33-14.33-14.33H28.66v-27.227h213.017v72.367
	c0,7.915,6.416,14.33,14.33,14.33c7.914,0,14.33-6.416,14.33-14.33v-72.367h119.417c7.915,0,14.33-6.416,14.33-14.33
	s-6.416-14.33-14.33-14.33H270.337V74.731H483.34L483.34,160.44L483.34,160.44z M241.677,74.731v29.821H28.66V74.731H241.677z"/>
<path d="M439.905,133.213h11.228c7.915,0,14.33-6.416,14.33-14.33s-6.416-14.33-14.33-14.33h-11.228
	c-7.915,0-14.33,6.416-14.33,14.33S431.991,133.213,439.905,133.213z"/>
</svg>