<?xml version="1.0" encoding="iso-8859-1"?>
<!-- Uploaded to: SVG Repo, www.svgrepo.com, Generator: SVG Repo Mixer Tools -->
<svg height="800px" width="800px" version="1.1" id="Layer_1" xmlns="http://www.w3.org/2000/svg" xmlns:xlink="http://www.w3.org/1999/xlink" 
	 viewBox="0 0 512 512" xml:space="preserve">
<g transform="translate(0 1)">
	<polygon style="fill:#3D83F3;" points="34.133,498.2 477.867,498.2 477.867,11.8 34.133,11.8 	"/>
	<polygon style="fill:#315ED8;" points="477.867,498.2 503.467,498.2 503.467,11.8 477.867,11.8 	"/>
	<polygon style="fill:#FFFFFF;" points="8.533,498.2 34.133,498.2 34.133,11.8 8.533,11.8 	"/>
	<path d="M512,506.733H0v-384c0-5.12,3.413-8.533,8.533-8.533s8.533,3.413,8.533,8.533v366.933h477.867v-76.8
		c0-5.12,3.413-8.533,8.533-8.533c5.12,0,8.533,3.413,8.533,8.533V506.733z"/>
	<path d="M503.467,344.6c-5.12,0-8.533-3.413-8.533-8.533V20.333H17.067v34.133c0,5.12-3.413,8.533-8.533,8.533S0,59.587,0,54.467
		v-51.2h512v332.8C512,341.187,508.587,344.6,503.467,344.6z"/>
	<path d="M17.067,88.6c0-5.12-3.413-8.533-8.533-8.533S0,83.48,0,88.6s3.413,8.533,8.533,8.533S17.067,93.72,17.067,88.6"/>
	<path d="M503.467,387.267c-5.12,0-8.533-3.413-8.533-8.533V370.2c0-5.12,3.413-8.533,8.533-8.533c5.12,0,8.533,3.413,8.533,8.533
		v8.533C512,383.853,508.587,387.267,503.467,387.267z"/>
	<path d="M418.133,412.867h-153.6c-5.12,0-8.533-3.413-8.533-8.533c0-5.12,3.413-8.533,8.533-8.533h153.6
		c5.12,0,8.533,3.413,8.533,8.533C426.667,409.453,423.253,412.867,418.133,412.867z"/>
	<path d="M358.4,353.133h-93.867c-5.12,0-8.533-3.413-8.533-8.533c0-5.12,3.413-8.533,8.533-8.533H358.4
		c5.12,0,8.533,3.413,8.533,8.533C366.933,349.72,363.52,353.133,358.4,353.133z"/>
	<path d="M418.133,293.4h-153.6c-5.12,0-8.533-3.413-8.533-8.533c0-5.12,3.413-8.533,8.533-8.533h153.6
		c5.12,0,8.533,3.413,8.533,8.533S423.253,293.4,418.133,293.4z"/>
	<path d="M401.067,233.667H264.533c-5.12,0-8.533-3.413-8.533-8.533c0-5.12,3.413-8.533,8.533-8.533h136.533
		c5.12,0,8.533,3.413,8.533,8.533C409.6,230.253,406.187,233.667,401.067,233.667z"/>
	<path d="M366.933,173.933h-102.4c-5.12,0-8.533-3.413-8.533-8.533s3.413-8.533,8.533-8.533h102.4c5.12,0,8.533,3.413,8.533,8.533
		S372.053,173.933,366.933,173.933z"/>
	<path d="M418.133,114.2h-153.6c-5.12,0-8.533-3.413-8.533-8.533s3.413-8.533,8.533-8.533h153.6c5.12,0,8.533,3.413,8.533,8.533
		S423.253,114.2,418.133,114.2z"/>
	<path d="M136.533,438.467c-5.12,0-8.533-3.413-8.533-8.533V80.067c0-5.12,3.413-8.533,8.533-8.533s8.533,3.413,8.533,8.533v349.867
		C145.067,435.053,141.653,438.467,136.533,438.467z"/>
	<path d="M76.8,148.333c-2.56,0-4.267-0.853-5.973-2.56c-3.413-3.413-3.413-8.533,0-11.947l59.733-59.733
		c3.413-3.413,8.533-3.413,11.947,0c3.413,3.413,3.413,8.533,0,11.947l-59.733,59.733C81.067,147.48,79.36,148.333,76.8,148.333z"/>
	<path d="M196.267,148.333c-2.56,0-4.267-0.853-5.973-2.56L130.56,86.04c-3.413-3.413-3.413-8.533,0-11.947
		c3.413-3.413,8.533-3.413,11.947,0l59.733,59.733c3.413,3.413,3.413,8.533,0,11.947
		C200.533,147.48,198.827,148.333,196.267,148.333z"/>
	<path d="M136.533,438.467c-2.56,0-4.267-0.853-5.973-2.56c-3.413-3.413-3.413-8.533,0-11.947l59.733-59.733
		c3.413-3.413,8.533-3.413,11.947,0c3.413,3.413,3.413,8.533,0,11.947l-59.733,59.733
		C140.8,437.613,139.093,438.467,136.533,438.467z"/>
	<path d="M136.533,438.467c-2.56,0-4.267-0.853-5.973-2.56l-59.733-59.733c-3.413-3.413-3.413-8.533,0-11.947
		c3.413-3.413,8.533-3.413,11.947,0l59.733,59.733c3.413,3.413,3.413,8.533,0,11.947C140.8,437.613,139.093,438.467,136.533,438.467
		z"/>
</g>
</svg>