<?xml version="1.0" encoding="utf-8"?>
<!-- Uploaded to: SVG Repo, www.svgrepo.com, Generator: SVG Repo Mixer Tools -->
<svg width="800px" height="800px" viewBox="-76.02 0 292.128 292.128" xmlns="http://www.w3.org/2000/svg"><defs><style>.a{fill:#ffffff;}.b{fill:#ffe9aa;}.c{fill:#7abee6;}.d{fill:#211715;}</style></defs><path class="a" d="M45.074,46.263a103.671,103.671,0,0,0-9.862,5.923c-8.244,5.894-14.28,14.585-9.875,27.821A274.584,274.584,0,0,0,69.6,83.226a275.573,275.573,0,0,0,44.268-3.212c4.4-13.241-1.632-21.933-9.877-27.828C95.482,46.1,84.69,42.911,83.987,36.72L83.946,18c-.008-3.7-.914-8.174-3.262-11.034C78.587,4.417,74.1,2.359,69.6,2.359S60.617,4.417,58.52,6.97C56.172,9.83,55.266,14.3,55.258,18L55.217,36.72C54.777,40.6,50.385,43.294,45.074,46.263Z"/><path class="a" d="M16.257,281.456a28.754,28.754,0,0,1-12.648-17.82c-1.788-7.126-1.109-17.568-.5-31.019.835-18.431,3.947-79.695,4.527-93.677A43.578,43.578,0,0,1,10.9,124.505a25.89,25.89,0,0,1,5.664-8.6l.032-.028a28.34,28.34,0,0,0,7.61,2.365,272.855,272.855,0,0,0,45.4,3.4,272.233,272.233,0,0,0,45.749-3.459,23.016,23.016,0,0,0,8.171-2.3.3.3,0,0,1,.032.024,25.89,25.89,0,0,1,5.664,8.6,43.554,43.554,0,0,1,3.265,14.435c.58,13.982,3.692,75.246,4.527,93.677.609,13.451,1.288,23.893-.5,31.019-2.606,10.391-9.1,16.89-19.125,21.292-13.28,3.817-28.787,4.779-47.783,4.779-18.249,0-34.711-.962-46.224-4.5A44.77,44.77,0,0,1,16.257,281.456Z"/><path class="b" d="M137.01,232.617c-.429-9.474-1.46-30.262-2.439-50.13-17.994,3-39.178,4.776-64.511,4.776s-46.518-1.779-64.512-4.776c-.979,19.868-2.01,40.656-2.439,50.13-.609,13.451-1.288,23.893.5,31.019,2.662,10.612,9.382,17.166,19.769,21.575q1.383.425,2.858.8c11.3,2.882,26.578,3.7,43.366,3.7,19,0,34.5-.962,47.783-4.779,10.022-4.4,16.519-10.9,19.125-21.292C138.3,256.51,137.619,246.068,137.01,232.617Z"/><path class="c" d="M116.056,79.793q-.384-.021-.77-.015A272.409,272.409,0,0,1,69.6,83.226,270.53,270.53,0,0,1,24.07,79.785a11.85,11.85,0,0,0-8.707,4.6c-2.536,3.371-3.292,7.722-3.835,11.9a69.32,69.32,0,0,0-.829,10.972c-.053,2.419,2.538,6.516,4.089,7.556,2.709,1.817,5.437,2.631,9.418,3.429a272.868,272.868,0,0,0,45.4,3.4,272.233,272.233,0,0,0,45.749-3.459,21.633,21.633,0,0,0,9.981-3.371c1.55-1.04,4.141-5.137,4.088-7.556a69.32,69.32,0,0,0-.829-10.972c-.543-4.182-1.3-8.533-3.835-11.9A11.817,11.817,0,0,0,116.056,79.793Z"/><path class="d" d="M25.388,77.6c-5.177-.867-10.448,2.568-12.993,6.924C9.756,89.04,9.306,94.493,8.714,99.579c-.185,1.6-.3,3.188-.347,4.792a14.789,14.789,0,0,0,.647,6.177,15.958,15.958,0,0,0,3.409,5.395,15.59,15.59,0,0,0,5.625,3.161c4.438,1.634,9.318,2.1,13.979,2.708,4.992.652,10.006,1.137,15.028,1.487a332.781,332.781,0,0,0,34.483.546,265.708,265.708,0,0,0,30.533-2.716c4.792-.723,9.638-1.257,13.859-3.849a13.041,13.041,0,0,0,5.881-10.454A98.279,98.279,0,0,0,130.8,94.837c-.689-4.954-1.964-10.36-5.885-13.811a14.314,14.314,0,0,0-6.729-3.37c-2.442-.458-4.641.007-7.054.375-4.711.718-9.447,1.259-14.193,1.674a322.075,322.075,0,0,1-33.861,1.063A273.959,273.959,0,0,1,31.63,78.539c-2.085-.28-4.166-.6-6.242-.941a2.472,2.472,0,0,0-2.952,1.676,2.419,2.419,0,0,0,1.676,2.952c19.821,3.281,40.1,3.955,60.144,3.1a260.3,260.3,0,0,0,28.329-2.691c.988-.151,2.027-.433,3.024-.486a8.147,8.147,0,0,1,2.747.506,9.233,9.233,0,0,1,4.567,3.271c2.729,3.7,3.092,8.765,3.625,13.178.183,1.521.324,3.042.381,4.573.034.914.052,1.829.073,2.743a4.813,4.813,0,0,1-.348,2.406,10.723,10.723,0,0,1-2.527,3.9c-.355.332-.094.087-.007.023-.193.142-.408.268-.613.394-.469.288-.952.554-1.445.8a16.937,16.937,0,0,1-2.993,1.117,59.944,59.944,0,0,1-6.833,1.227q-2.994.472-6,.856c-4.681.591-9.379,1.037-14.084,1.365a297.9,297.9,0,0,1-61.169-1.628c-4.117-.568-8.538-1-12.379-2.681a14.136,14.136,0,0,1-2.6-1.449c.387.282-.238-.248-.359-.377a6.79,6.79,0,0,1-.724-.905c-.9-1.31-1.874-3.152-1.812-4.417.176-3.625.342-7.15.824-10.756.569-4.251,1.389-9.377,5.03-12.167,1.252-.961,3.53-2.165,5.154-1.893a2.471,2.471,0,0,0,2.952-1.676A2.419,2.419,0,0,0,25.388,77.6Z"/><path class="d" d="M27.489,78.869c-1.747-5.667-1.741-11.556,1.369-16.747,2.991-4.992,7.909-8.359,12.846-11.215,2.844-1.645,5.779-3.14,8.553-4.9a18.7,18.7,0,0,0,6.111-5.525c1.791-2.874,1.255-6.439,1.262-9.67.009-4.187.008-8.373.028-12.559a17.088,17.088,0,0,1,2.1-8.887c1.552-2.527,4.553-3.806,7.354-4.37A13.669,13.669,0,0,1,76.56,6.648c2.612,1.534,3.848,4.037,4.5,6.917.8,3.519.488,7.259.5,10.842l.014,6.4a61.023,61.023,0,0,0,.056,6.229c.6,5.717,7.053,8.932,11.479,11.4,5.4,3.016,10.962,5.967,15.081,10.7a19.046,19.046,0,0,1,4.613,14.94,27.262,27.262,0,0,1-1.088,4.785c-.912,2.959,3.72,4.224,4.629,1.276,2-6.494,1.928-13.393-1.306-19.476-2.991-5.626-8.153-9.715-13.509-12.957-2.99-1.81-6.107-3.4-9.1-5.2-2.158-1.3-4.57-2.852-5.7-4.9-.191-.345-.028.032-.155-.336a3.994,3.994,0,0,1-.216-.832c-.1-.919.026-1.98.024-2.931l-.015-6.649c-.009-4.025.27-8.165-.257-12.163-.465-3.524-1.583-7.124-4.039-9.789a16.592,16.592,0,0,0-9.522-4.7A19.063,19.063,0,0,0,61.233,1.962a13.753,13.753,0,0,0-6.867,7.562c-1.4,3.5-1.505,7.224-1.513,10.943l-.029,13.052c0,.915.1,1.919.046,2.809a3.826,3.826,0,0,1-.2.837c-.133.426-.027.156-.192.453a8.7,8.7,0,0,1-2.209,2.522,49.851,49.851,0,0,1-7.977,4.925c-5.7,3.17-11.495,6.584-15.584,11.792a23.571,23.571,0,0,0-5.06,17.61,33.067,33.067,0,0,0,1.213,5.678c.908,2.943,5.543,1.688,4.629-1.276Z"/><path class="d" d="M14.868,114.209c-3.6,3.2-5.85,8.03-7.347,12.513A47.547,47.547,0,0,0,5.2,139.786c-.191,4.463-.406,8.924-.62,13.386q-1,20.9-2.047,41.787Q1.64,213.076.774,231.193C.368,240.023-.441,249,.3,257.835c.668,7.913,3.479,15.488,9.157,21.19a37.587,37.587,0,0,0,10.023,7.03,44.111,44.111,0,0,0,12.035,3.536A192.876,192.876,0,0,0,61.9,292.044c10.694.186,21.438.116,32.1-.754,4.716-.385,9.425-.945,14.085-1.772,4.247-.753,8.643-1.54,12.531-3.459,7.547-3.724,13.592-9.52,16.777-17.382,3.111-7.68,2.811-16.265,2.525-24.394-.458-12.986-1.187-25.969-1.825-38.947q-1.059-21.56-2.12-43.117-.414-8.494-.813-16.991c-.3-6.447-.579-12.764-2.716-18.947-1.5-4.329-3.715-8.969-7.2-12.072-2.3-2.049-5.707,1.334-3.394,3.394,3.339,2.976,5.275,7.526,6.531,11.718a44.636,44.636,0,0,1,1.754,10.993q.292,6.735.627,13.469.979,20.433,2,40.864.884,17.933,1.742,35.866c.388,8.368,1.059,16.807.643,25.185-.355,7.153-2.412,14.261-7.572,19.607a33.4,33.4,0,0,1-9.387,6.609c-3.615,1.784-7.987,2.391-11.94,3.073a186.4,186.4,0,0,1-28.131,2.245c-10.674.2-21.394.133-32.043-.675A132.1,132.1,0,0,1,32.43,284.9a39.4,39.4,0,0,1-11.166-3.31c-6.675-3.429-12.076-8.639-14.535-15.854-2.573-7.55-1.967-15.885-1.641-23.816.509-12.4,1.154-24.785,1.763-37.175q1.035-21.051,2.071-42.1.408-8.368.8-16.737c.269-5.78.4-11.429,2.142-17.023,1.255-4.041,3.171-8.4,6.4-11.277,2.312-2.059-1.093-5.444-3.394-3.394Z"/><path class="d" d="M61.116,189.979q9.573.228,19.148-.057c3.081-.093,3.095-4.894,0-4.8q-9.571.288-19.148.057c-3.09-.073-3.088,4.727,0,4.8Z"/><path class="d" d="M61.116,220.682q9.573.228,19.148-.058c3.081-.092,3.095-4.893,0-4.8q-9.571.289-19.148.058c-3.09-.074-3.088,4.726,0,4.8Z"/><path class="d" d="M61.116,251.394c6.381.173,12.768.135,19.148-.057,3.081-.093,3.095-4.894,0-4.8-6.38.192-12.767.23-19.148.057-3.09-.084-3.087,4.716,0,4.8Z"/><path class="d" d="M61.116,159.267q9.574.228,19.148-.048c3.082-.085,3.095-4.885,0-4.8q-9.573.262-19.148.048c-3.09-.074-3.088,4.726,0,4.8Z"/><path class="d" d="M68.606,148.9V259.1c0,3.088,4.8,3.093,4.8,0V148.9c0-3.088-4.8-3.093-4.8,0Z"/></svg>