<?xml version="1.0" encoding="iso-8859-1"?>
<!-- Uploaded to: SVG Repo, www.svgrepo.com, Generator: SVG Repo Mixer Tools -->
<!DOCTYPE svg PUBLIC "-//W3C//DTD SVG 1.1//EN" "http://www.w3.org/Graphics/SVG/1.1/DTD/svg11.dtd">
<svg fill="#000000" height="800px" width="800px" version="1.1" id="Capa_1" xmlns="http://www.w3.org/2000/svg" xmlns:xlink="http://www.w3.org/1999/xlink" 
	 viewBox="0 0 484.914 484.914" xml:space="preserve">
<g id="XMLID_221_">
	<path id="XMLID_222_" d="M339.424,245.289c-4.862,10.805-11.469,20.628-19.468,29.167c-9.42,10.063-20.751,18.277-33.432,24.081
		c15.41,2.713,26.323,6.461,31.832,9.645c-9.799,5.665-36.175,13.246-75.899,13.246c-39.724,0-66.1-7.581-75.898-13.246
		c5.509-3.185,16.422-6.932,31.832-9.645c-12.681-5.804-24.012-14.018-33.433-24.081c-7.999-8.539-14.605-18.355-19.468-29.167
		C64.268,256.835,0,283.351,0,324.01c0,56.053,121.974,85.381,242.457,85.381s242.457-29.328,242.457-85.381
		C484.914,283.351,420.655,256.835,339.424,245.289z M242.457,377.736c-136.396,0-210.802-35.488-210.802-53.726
		c0-14.382,46.445-39.423,132.885-49.399c-19.327,7.126-32.644,17.953-32.644,33.571c0,33.138,59.561,44.901,110.561,44.901
		c50.999,0,110.561-11.763,110.561-44.901c0-15.618-13.317-26.446-32.644-33.571c86.44,9.976,132.885,35.017,132.885,49.399
		C453.259,342.248,378.853,377.736,242.457,377.736z"/>
	<path id="XMLID_225_" d="M242.457,276.566c41.238,0,74.663-33.417,74.663-74.663c0-36.072-49.289-80.508-68.499-122.555
		c-2.344-5.13-9.724-5.09-12.02,0.062c-18.625,41.773-68.806,86.477-68.806,122.493
		C167.794,243.149,201.219,276.566,242.457,276.566z M201.034,193.139c6.469,0,11.715,5.249,11.715,11.717
		c0,11.306,9.19,20.495,20.497,20.495c6.469,0,11.715,5.247,11.715,11.715c0,6.469-5.247,11.716-11.715,11.716
		c-24.221,0-43.927-19.707-43.927-43.926C189.318,198.388,194.565,193.139,201.034,193.139z"/>
</g>
</svg>